<svg width="1349" height="831" xmlns="http://www.w3.org/2000/svg"><g><path d="M-34,-84L-87,214L-40,103Z" fill="#72bbae" stroke="#72bbae" fill-opacity="1" stroke-opacity="1"/><path d="M-34,-84L-40,103L82,100Z" fill="#72bdaf" stroke="#72bdaf" fill-opacity="1" stroke-opacity="1"/><path d="M-34,-84L82,100L96,-131Z" fill="#72c1af" stroke="#72c1af" fill-opacity="1" stroke-opacity="1"/><path d="M96,-131L82,100L188,-115Z" fill="#72c1b2" stroke="#72c1b2" fill-opacity="1" stroke-opacity="1"/><path d="M96,-131L188,-115L545,-114Z" fill="#72c2b5" stroke="#72c2b5" fill-opacity="1" stroke-opacity="1"/><path d="M96,-131L545,-114L1290,-119Z" fill="#72adb5" stroke="#72adb5" fill-opacity="1" stroke-opacity="1"/><path d="M188,-115L82,100L228,100Z" fill="#72bdb8" stroke="#72bdb8" fill-opacity="1" stroke-opacity="1"/><path d="M188,-115L228,100L318,79Z" fill="#72bcbb" stroke="#72bcbb" fill-opacity="1" stroke-opacity="1"/><path d="M188,-115L318,79L401,-20Z" fill="#72bbb9" stroke="#72bbb9" fill-opacity="1" stroke-opacity="1"/><path d="M188,-115L401,-20L545,-114Z" fill="#72bab6" stroke="#72bab6" fill-opacity="1" stroke-opacity="1"/><path d="M401,-20L318,79L521,86Z" fill="#72b1bc" stroke="#72b1bc" fill-opacity="1" stroke-opacity="1"/><path d="M401,-20L521,86L545,-114Z" fill="#72b0b9" stroke="#72b0b9" fill-opacity="1" stroke-opacity="1"/><path d="M545,-114L521,86L670,-97Z" fill="#72adb8" stroke="#72adb8" fill-opacity="1" stroke-opacity="1"/><path d="M545,-114L670,-97L1290,-119Z" fill="#73a2b5" stroke="#73a2b5" fill-opacity="1" stroke-opacity="1"/><path d="M670,-97L521,86L718,22Z" fill="#72a7ba" stroke="#72a7ba" fill-opacity="1" stroke-opacity="1"/><path d="M670,-97L718,22L857,-78Z" fill="#73a4b8" stroke="#73a4b8" fill-opacity="1" stroke-opacity="1"/><path d="M670,-97L857,-78L1290,-119Z" fill="#759eb6" stroke="#759eb6" fill-opacity="1" stroke-opacity="1"/><path d="M857,-78L718,22L787,91Z" fill="#739eba" stroke="#739eba" fill-opacity="1" stroke-opacity="1"/><path d="M857,-78L787,91L942,-18Z" fill="#739bba" stroke="#739bba" fill-opacity="1" stroke-opacity="1"/><path d="M857,-78L942,-18L1167,-49Z" fill="#789bb8" stroke="#789bb8" fill-opacity="1" stroke-opacity="1"/><path d="M857,-78L1167,-49L1290,-119Z" fill="#7f9db6" stroke="#7f9db6" fill-opacity="1" stroke-opacity="1"/><path d="M942,-18L787,91L992,107Z" fill="#7496bc" stroke="#7496bc" fill-opacity="1" stroke-opacity="1"/><path d="M942,-18L992,107L1146,18Z" fill="#7a97bb" stroke="#7a97bb" fill-opacity="1" stroke-opacity="1"/><path d="M942,-18L1146,18L1167,-49Z" fill="#7e9ab9" stroke="#7e9ab9" fill-opacity="1" stroke-opacity="1"/><path d="M1167,-49L1146,18L1311,73Z" fill="#8498ba" stroke="#8498ba" fill-opacity="1" stroke-opacity="1"/><path d="M1167,-49L1311,73L1290,-119Z" fill="#879ab8" stroke="#879ab8" fill-opacity="1" stroke-opacity="1"/><path d="M1290,-119L1311,73L1423,-111Z" fill="#8c9cb8" stroke="#8c9cb8" fill-opacity="1" stroke-opacity="1"/><path d="M1423,-111L1311,73L1456,40Z" fill="#8f99ba" stroke="#8f99ba" fill-opacity="1" stroke-opacity="1"/><path d="M-40,103L-87,214L128,193Z" fill="#72b5b3" stroke="#72b5b3" fill-opacity="1" stroke-opacity="1"/><path d="M-40,103L128,193L82,100Z" fill="#72b8b6" stroke="#72b8b6" fill-opacity="1" stroke-opacity="1"/><path d="M82,100L128,193L228,100Z" fill="#72b8bb" stroke="#72b8bb" fill-opacity="1" stroke-opacity="1"/><path d="M228,100L128,193L241,225Z" fill="#72b4be" stroke="#72b4be" fill-opacity="1" stroke-opacity="1"/><path d="M228,100L241,225L318,79Z" fill="#72b5bf" stroke="#72b5bf" fill-opacity="1" stroke-opacity="1"/><path d="M318,79L241,225L404,267Z" fill="#72adbf" stroke="#72adbf" fill-opacity="1" stroke-opacity="1"/><path d="M318,79L404,267L521,86Z" fill="#72acbf" stroke="#72acbf" fill-opacity="1" stroke-opacity="1"/><path d="M521,86L404,267L564,270Z" fill="#72a2bf" stroke="#72a2bf" fill-opacity="1" stroke-opacity="1"/><path d="M521,86L564,270L620,188Z" fill="#729fbf" stroke="#729fbf" fill-opacity="1" stroke-opacity="1"/><path d="M521,86L620,188L718,22Z" fill="#72a2be" stroke="#72a2be" fill-opacity="1" stroke-opacity="1"/><path d="M718,22L620,188L787,91Z" fill="#729dbe" stroke="#729dbe" fill-opacity="1" stroke-opacity="1"/><path d="M787,91L620,188L845,277Z" fill="#7395bf" stroke="#7395bf" fill-opacity="1" stroke-opacity="1"/><path d="M787,91L845,277L936,226Z" fill="#738ebf" stroke="#738ebf" fill-opacity="1" stroke-opacity="1"/><path d="M787,91L936,226L992,107Z" fill="#7491bf" stroke="#7491bf" fill-opacity="1" stroke-opacity="1"/><path d="M992,107L936,226L1073,227Z" fill="#798dbf" stroke="#798dbf" fill-opacity="1" stroke-opacity="1"/><path d="M992,107L1073,227L1146,18Z" fill="#7d92be" stroke="#7d92be" fill-opacity="1" stroke-opacity="1"/><path d="M1146,18L1073,227L1281,225Z" fill="#8290bf" stroke="#8290bf" fill-opacity="1" stroke-opacity="1"/><path d="M1146,18L1281,225L1311,73Z" fill="#8793be" stroke="#8793be" fill-opacity="1" stroke-opacity="1"/><path d="M1311,73L1281,225L1469,213Z" fill="#8d8ebf" stroke="#8d8ebf" fill-opacity="1" stroke-opacity="1"/><path d="M1311,73L1469,213L1456,40Z" fill="#9093be" stroke="#9093be" fill-opacity="1" stroke-opacity="1"/><path d="M-87,214L-107,835L-81,552Z" fill="#799aae" stroke="#799aae" fill-opacity="1" stroke-opacity="1"/><path d="M-87,214L-81,552L-48,331Z" fill="#72a3af" stroke="#72a3af" fill-opacity="1" stroke-opacity="1"/><path d="M-87,214L-48,331L128,193Z" fill="#72aeb3" stroke="#72aeb3" fill-opacity="1" stroke-opacity="1"/><path d="M128,193L-48,331L116,344Z" fill="#72aab7" stroke="#72aab7" fill-opacity="1" stroke-opacity="1"/><path d="M128,193L116,344L241,225Z" fill="#72adbc" stroke="#72adbc" fill-opacity="1" stroke-opacity="1"/><path d="M241,225L116,344L255,373Z" fill="#72a7be" stroke="#72a7be" fill-opacity="1" stroke-opacity="1"/><path d="M241,225L255,373L350,324Z" fill="#72a4bf" stroke="#72a4bf" fill-opacity="1" stroke-opacity="1"/><path d="M241,225L350,324L404,267Z" fill="#72a5bf" stroke="#72a5bf" fill-opacity="1" stroke-opacity="1"/><path d="M404,267L350,324L573,408Z" fill="#7299bf" stroke="#7299bf" fill-opacity="1" stroke-opacity="1"/><path d="M404,267L573,408L564,270Z" fill="#7297bf" stroke="#7297bf" fill-opacity="1" stroke-opacity="1"/><path d="M564,270L573,408L689,417Z" fill="#728cbf" stroke="#728cbf" fill-opacity="1" stroke-opacity="1"/><path d="M564,270L689,417L620,188Z" fill="#7292bf" stroke="#7292bf" fill-opacity="1" stroke-opacity="1"/><path d="M620,188L689,417L845,277Z" fill="#728dbf" stroke="#728dbf" fill-opacity="1" stroke-opacity="1"/><path d="M845,277L689,417L812,404Z" fill="#7383bf" stroke="#7383bf" fill-opacity="1" stroke-opacity="1"/><path d="M845,277L812,404L961,339Z" fill="#7380bf" stroke="#7380bf" fill-opacity="1" stroke-opacity="1"/><path d="M845,277L961,339L936,226Z" fill="#7484bf" stroke="#7484bf" fill-opacity="1" stroke-opacity="1"/><path d="M936,226L961,339L1073,227Z" fill="#7886bf" stroke="#7886bf" fill-opacity="1" stroke-opacity="1"/><path d="M1073,227L961,339L1091,428Z" fill="#7b80bf" stroke="#7b80bf" fill-opacity="1" stroke-opacity="1"/><path d="M1073,227L1091,428L1256,402Z" fill="#817ebf" stroke="#817ebf" fill-opacity="1" stroke-opacity="1"/><path d="M1073,227L1256,402L1281,225Z" fill="#8484bf" stroke="#8484bf" fill-opacity="1" stroke-opacity="1"/><path d="M1281,225L1256,402L1447,400Z" fill="#8b7fbf" stroke="#8b7fbf" fill-opacity="1" stroke-opacity="1"/><path d="M1281,225L1447,400L1469,213Z" fill="#8f85bf" stroke="#8f85bf" fill-opacity="1" stroke-opacity="1"/><path d="M1469,213L1447,400L1425,1009Z" fill="#9973bf" stroke="#9973bf" fill-opacity="1" stroke-opacity="1"/><path d="M-48,331L-81,552L22,499Z" fill="#759cb1" stroke="#759cb1" fill-opacity="1" stroke-opacity="1"/><path d="M-48,331L22,499L116,344Z" fill="#72a1b5" stroke="#72a1b5" fill-opacity="1" stroke-opacity="1"/><path d="M116,344L22,499L247,548Z" fill="#759cba" stroke="#759cba" fill-opacity="1" stroke-opacity="1"/><path d="M116,344L247,548L255,373Z" fill="#739dbe" stroke="#739dbe" fill-opacity="1" stroke-opacity="1"/><path d="M255,373L247,548L363,479Z" fill="#7598bf" stroke="#7598bf" fill-opacity="1" stroke-opacity="1"/><path d="M255,373L363,479L350,324Z" fill="#729abf" stroke="#729abf" fill-opacity="1" stroke-opacity="1"/><path d="M350,324L363,479L573,408Z" fill="#7293bf" stroke="#7293bf" fill-opacity="1" stroke-opacity="1"/><path d="M573,408L363,479L551,555Z" fill="#768cbf" stroke="#768cbf" fill-opacity="1" stroke-opacity="1"/><path d="M573,408L551,555L682,512Z" fill="#7685bf" stroke="#7685bf" fill-opacity="1" stroke-opacity="1"/><path d="M573,408L682,512L689,417Z" fill="#7484bf" stroke="#7484bf" fill-opacity="1" stroke-opacity="1"/><path d="M689,417L682,512L812,404Z" fill="#7480bf" stroke="#7480bf" fill-opacity="1" stroke-opacity="1"/><path d="M812,404L682,512L855,584Z" fill="#777abf" stroke="#777abf" fill-opacity="1" stroke-opacity="1"/><path d="M812,404L855,584L1026,502Z" fill="#7875bf" stroke="#7875bf" fill-opacity="1" stroke-opacity="1"/><path d="M812,404L1026,502L961,339Z" fill="#7578bf" stroke="#7578bf" fill-opacity="1" stroke-opacity="1"/><path d="M961,339L1026,502L1091,428Z" fill="#7b77bf" stroke="#7b77bf" fill-opacity="1" stroke-opacity="1"/><path d="M1091,428L1026,502L1099,578Z" fill="#8174bf" stroke="#8174bf" fill-opacity="1" stroke-opacity="1"/><path d="M1091,428L1099,578L1232,506Z" fill="#8674bf" stroke="#8674bf" fill-opacity="1" stroke-opacity="1"/><path d="M1091,428L1232,506L1256,402Z" fill="#8577bf" stroke="#8577bf" fill-opacity="1" stroke-opacity="1"/><path d="M1256,402L1232,506L1419,478Z" fill="#8c76bf" stroke="#8c76bf" fill-opacity="1" stroke-opacity="1"/><path d="M1256,402L1419,478L1447,400Z" fill="#8e77bf" stroke="#8e77bf" fill-opacity="1" stroke-opacity="1"/><path d="M1447,400L1419,478L1424,707Z" fill="#9773bf" stroke="#9773bf" fill-opacity="1" stroke-opacity="1"/><path d="M1447,400L1424,707L1422,880Z" fill="#a272bf" stroke="#a272bf" fill-opacity="1" stroke-opacity="1"/><path d="M1447,400L1422,880L1425,1009Z" fill="#ab72bf" stroke="#ab72bf" fill-opacity="1" stroke-opacity="1"/><path d="M-81,552L-107,835L-46,630Z" fill="#8499af" stroke="#8499af" fill-opacity="1" stroke-opacity="1"/><path d="M-81,552L-46,630L22,499Z" fill="#7a99b1" stroke="#7a99b1" fill-opacity="1" stroke-opacity="1"/><path d="M22,499L-46,630L117,684Z" fill="#7e99b5" stroke="#7e99b5" fill-opacity="1" stroke-opacity="1"/><path d="M22,499L117,684L247,548Z" fill="#7c98ba" stroke="#7c98ba" fill-opacity="1" stroke-opacity="1"/><path d="M247,548L117,684L245,641Z" fill="#8098be" stroke="#8098be" fill-opacity="1" stroke-opacity="1"/><path d="M247,548L245,641L367,654Z" fill="#7f94bf" stroke="#7f94bf" fill-opacity="1" stroke-opacity="1"/><path d="M247,548L367,654L363,479Z" fill="#7a92bf" stroke="#7a92bf" fill-opacity="1" stroke-opacity="1"/><path d="M363,479L367,654L519,627Z" fill="#7d8dbf" stroke="#7d8dbf" fill-opacity="1" stroke-opacity="1"/><path d="M363,479L519,627L551,555Z" fill="#7a8abf" stroke="#7a8abf" fill-opacity="1" stroke-opacity="1"/><path d="M551,555L519,627L713,699Z" fill="#8083bf" stroke="#8083bf" fill-opacity="1" stroke-opacity="1"/><path d="M551,555L713,699L682,512Z" fill="#7d80bf" stroke="#7d80bf" fill-opacity="1" stroke-opacity="1"/><path d="M682,512L713,699L855,584Z" fill="#7e7abf" stroke="#7e7abf" fill-opacity="1" stroke-opacity="1"/><path d="M855,584L713,699L864,728Z" fill="#8577bf" stroke="#8577bf" fill-opacity="1" stroke-opacity="1"/><path d="M855,584L864,728L1008,714Z" fill="#8672bf" stroke="#8672bf" fill-opacity="1" stroke-opacity="1"/><path d="M855,584L1008,714L1026,502Z" fill="#8272bf" stroke="#8272bf" fill-opacity="1" stroke-opacity="1"/><path d="M1026,502L1008,714L1099,578Z" fill="#8772bf" stroke="#8772bf" fill-opacity="1" stroke-opacity="1"/><path d="M1099,578L1008,714L1156,626Z" fill="#8d72bf" stroke="#8d72bf" fill-opacity="1" stroke-opacity="1"/><path d="M1099,578L1156,626L1232,506Z" fill="#8b72bf" stroke="#8b72bf" fill-opacity="1" stroke-opacity="1"/><path d="M1232,506L1156,626L1253,688Z" fill="#9172bf" stroke="#9172bf" fill-opacity="1" stroke-opacity="1"/><path d="M1232,506L1253,688L1419,478Z" fill="#9272bf" stroke="#9272bf" fill-opacity="1" stroke-opacity="1"/><path d="M1419,478L1253,688L1424,707Z" fill="#9b72bf" stroke="#9b72bf" fill-opacity="1" stroke-opacity="1"/><path d="M-46,630L-107,835L67,866Z" fill="#8e99b2" stroke="#8e99b2" fill-opacity="1" stroke-opacity="1"/><path d="M-46,630L67,866L117,684Z" fill="#8999b6" stroke="#8999b6" fill-opacity="1" stroke-opacity="1"/><path d="M117,684L67,866L273,830Z" fill="#8f98bb" stroke="#8f98bb" fill-opacity="1" stroke-opacity="1"/><path d="M117,684L273,830L245,641Z" fill="#8998bf" stroke="#8998bf" fill-opacity="1" stroke-opacity="1"/><path d="M245,641L273,830L367,654Z" fill="#8894bf" stroke="#8894bf" fill-opacity="1" stroke-opacity="1"/><path d="M367,654L273,830L394,860Z" fill="#8e91bf" stroke="#8e91bf" fill-opacity="1" stroke-opacity="1"/><path d="M367,654L394,860L584,791Z" fill="#8d8bbf" stroke="#8d8bbf" fill-opacity="1" stroke-opacity="1"/><path d="M367,654L584,791L519,627Z" fill="#8689bf" stroke="#8689bf" fill-opacity="1" stroke-opacity="1"/><path d="M519,627L584,791L713,699Z" fill="#8782bf" stroke="#8782bf" fill-opacity="1" stroke-opacity="1"/><path d="M713,699L584,791L680,773Z" fill="#8c7fbf" stroke="#8c7fbf" fill-opacity="1" stroke-opacity="1"/><path d="M713,699L680,773L811,799Z" fill="#8d7bbf" stroke="#8d7bbf" fill-opacity="1" stroke-opacity="1"/><path d="M713,699L811,799L864,728Z" fill="#8b78bf" stroke="#8b78bf" fill-opacity="1" stroke-opacity="1"/><path d="M864,728L811,799L1013,828Z" fill="#9072bf" stroke="#9072bf" fill-opacity="1" stroke-opacity="1"/><path d="M864,728L1013,828L1008,714Z" fill="#9172bf" stroke="#9172bf" fill-opacity="1" stroke-opacity="1"/><path d="M1008,714L1013,828L1178,804Z" fill="#9972bf" stroke="#9972bf" fill-opacity="1" stroke-opacity="1"/><path d="M1008,714L1178,804L1156,626Z" fill="#9572bf" stroke="#9572bf" fill-opacity="1" stroke-opacity="1"/><path d="M1156,626L1178,804L1253,688Z" fill="#9972bf" stroke="#9972bf" fill-opacity="1" stroke-opacity="1"/><path d="M1253,688L1178,804L1313,818Z" fill="#a272bf" stroke="#a272bf" fill-opacity="1" stroke-opacity="1"/><path d="M1253,688L1313,818L1424,707Z" fill="#a372bf" stroke="#a372bf" fill-opacity="1" stroke-opacity="1"/><path d="M1424,707L1313,818L1422,880Z" fill="#ac72bf" stroke="#ac72bf" fill-opacity="1" stroke-opacity="1"/><path d="M-107,835L-38,935L67,866Z" fill="#9799b2" stroke="#9799b2" fill-opacity="1" stroke-opacity="1"/><path d="M67,866L-38,935L39,942Z" fill="#9a99b4" stroke="#9a99b4" fill-opacity="1" stroke-opacity="1"/><path d="M67,866L39,942L280,984Z" fill="#9c98ba" stroke="#9c98ba" fill-opacity="1" stroke-opacity="1"/><path d="M67,866L280,984L273,830Z" fill="#9898be" stroke="#9898be" fill-opacity="1" stroke-opacity="1"/><path d="M273,830L280,984L377,941Z" fill="#9b93bf" stroke="#9b93bf" fill-opacity="1" stroke-opacity="1"/><path d="M273,830L377,941L394,860Z" fill="#9791bf" stroke="#9791bf" fill-opacity="1" stroke-opacity="1"/><path d="M394,860L377,941L556,937Z" fill="#9a8cbf" stroke="#9a8cbf" fill-opacity="1" stroke-opacity="1"/><path d="M394,860L556,937L584,791Z" fill="#9688bf" stroke="#9688bf" fill-opacity="1" stroke-opacity="1"/><path d="M584,791L556,937L624,972Z" fill="#9983bf" stroke="#9983bf" fill-opacity="1" stroke-opacity="1"/><path d="M584,791L624,972L680,773Z" fill="#9481bf" stroke="#9481bf" fill-opacity="1" stroke-opacity="1"/><path d="M680,773L624,972L811,799Z" fill="#947dbf" stroke="#947dbf" fill-opacity="1" stroke-opacity="1"/><path d="M811,799L624,972L862,995Z" fill="#9b79bf" stroke="#9b79bf" fill-opacity="1" stroke-opacity="1"/><path d="M811,799L862,995L1013,828Z" fill="#9872bf" stroke="#9872bf" fill-opacity="1" stroke-opacity="1"/><path d="M1013,828L862,995L996,967Z" fill="#a072bf" stroke="#a072bf" fill-opacity="1" stroke-opacity="1"/><path d="M1013,828L996,967L1169,968Z" fill="#a572bf" stroke="#a572bf" fill-opacity="1" stroke-opacity="1"/><path d="M1013,828L1169,968L1178,804Z" fill="#a372bf" stroke="#a372bf" fill-opacity="1" stroke-opacity="1"/><path d="M1178,804L1169,968L1264,957Z" fill="#ac72bf" stroke="#ac72bf" fill-opacity="1" stroke-opacity="1"/><path d="M1178,804L1264,957L1313,818Z" fill="#aa72bf" stroke="#aa72bf" fill-opacity="1" stroke-opacity="1"/><path d="M1313,818L1264,957L1422,880Z" fill="#b172bf" stroke="#b172bf" fill-opacity="1" stroke-opacity="1"/><path d="M1422,880L1264,957L1425,1009Z" fill="#b872bf" stroke="#b872bf" fill-opacity="1" stroke-opacity="1"/><path d="M-38,935L280,984L39,942Z" fill="#9e98b8" stroke="#9e98b8" fill-opacity="1" stroke-opacity="1"/><path d="M280,984L1425,1009L862,995Z" fill="#a375bf" stroke="#a375bf" fill-opacity="1" stroke-opacity="1"/><path d="M280,984L862,995L624,972Z" fill="#a183bf" stroke="#a183bf" fill-opacity="1" stroke-opacity="1"/><path d="M280,984L624,972L377,941Z" fill="#9f8dbf" stroke="#9f8dbf" fill-opacity="1" stroke-opacity="1"/><path d="M377,941L624,972L556,937Z" fill="#9d87bf" stroke="#9d87bf" fill-opacity="1" stroke-opacity="1"/><path d="M862,995L1425,1009L1169,968Z" fill="#b072bf" stroke="#b072bf" fill-opacity="1" stroke-opacity="1"/><path d="M862,995L1169,968L996,967Z" fill="#a772bf" stroke="#a772bf" fill-opacity="1" stroke-opacity="1"/><path d="M1169,968L1425,1009L1264,957Z" fill="#b772bf" stroke="#b772bf" fill-opacity="1" stroke-opacity="1"/></g><filter id="noise"><feTurbulence type="fractalNoise" in="fillPaint" fill="#F00" baseFrequency="0.7" numOctaves="10" stitchTiles="stitch"/><feComponentTransfer><feFuncR type="linear" slope="2" intercept="-.5"/><feFuncG type="linear" slope="2" intercept="-.5"/><feFuncB type="linear" slope="2" intercept="-.5"/></feComponentTransfer><feColorMatrix type="matrix" values="0.3333 0.3333 0.3333 0 0 
 0.3333 0.3333 0.3333 0 0 
 0.3333 0.3333 0.3333 0 0 
 0 0 0 1 0"/></filter><rect opacity="0.3" width="100%" height="100%" filter="url(#noise)"/></svg>